<?xml version="1.0" standalone="no"?>
<!DOCTYPE svg PUBLIC "-//W3C//DTD SVG 20010904//EN"
 "http://www.w3.org/TR/2001/REC-SVG-20010904/DTD/svg10.dtd">
<svg version="1.0" xmlns="http://www.w3.org/2000/svg"
 width="588.000000pt" height="794.000000pt" viewBox="0 0 588.000000 794.000000"
 preserveAspectRatio="xMidYMid meet">
<metadata>
Created by potrace 1.15, written by Peter Selinger 2001-2017
</metadata>
<g transform="translate(0.000000,794.000000) scale(0.100000,-0.100000)"
fill="#000000" stroke="none">
<path d="M3772 5837 c-6 -6 -17 -47 -25 -90 -10 -50 -22 -86 -36 -101 -18 -19
-21 -34 -20 -92 1 -38 4 -59 6 -46 2 12 10 21 17 20 14 -3 76 55 76 71 0 6 4
11 9 11 5 0 23 14 40 31 22 22 31 40 31 64 0 18 6 35 13 38 9 3 12 17 9 41 -4
31 -8 36 -31 36 -15 0 -36 7 -47 15 -24 18 -29 18 -42 2z"/>
<path d="M3597 5354 c-3 -3 -23 -6 -44 -6 -105 0 -164 -70 -113 -135 11 -14
20 -35 20 -45 0 -32 30 -87 45 -82 7 3 16 21 19 40 4 19 11 34 16 34 6 0 10
18 10 41 0 32 3 40 14 36 11 -4 17 7 23 46 6 32 14 51 21 50 7 -2 12 4 12 12
0 15 -12 20 -23 9z"/>
<path d="M1927 3119 c-4 -13 -1 -26 5 -30 7 -4 12 -24 11 -43 -1 -31 3 -37 32
-47 28 -11 33 -17 33 -45 0 -33 44 -124 50 -105 7 22 20 10 25 -24 7 -43 28
-67 43 -50 8 8 8 16 -2 30 -8 10 -14 38 -14 61 0 26 -6 47 -16 55 -8 7 -24 29
-34 50 -11 20 -31 46 -44 57 -14 11 -22 22 -19 26 3 3 2 6 -4 6 -6 0 -9 9 -6
20 6 23 -14 53 -29 44 -6 -4 -14 -1 -18 6 -5 8 -9 4 -13 -11z"/>
<path d="M2858 2946 c-24 -18 -23 -35 6 -65 17 -19 30 -55 45 -124 11 -54 21
-100 21 -102 0 -12 -62 -33 -117 -40 -59 -6 -66 -5 -147 34 -47 23 -92 41
-100 41 -8 0 -16 16 -20 43 -6 33 -9 38 -16 26 -16 -27 8 -78 38 -85 15 -3 61
-21 102 -40 66 -30 75 -37 78 -63 2 -17 -4 -41 -14 -56 -13 -20 -14 -31 -6
-53 6 -15 12 -38 14 -51 2 -13 12 -30 24 -38 18 -12 24 -11 48 8 15 12 28 20
30 18 1 -2 19 -34 39 -71 27 -49 37 -78 37 -112 0 -45 0 -46 -51 -67 -35 -15
-59 -35 -77 -62 -15 -22 -35 -51 -44 -66 -14 -20 -18 -45 -16 -116 l2 -90 5
90 c6 90 16 117 63 169 10 11 18 23 18 26 0 9 67 40 85 40 8 0 15 -4 15 -10 0
-5 23 -10 50 -10 43 0 52 -3 60 -22 8 -22 9 -22 9 4 1 26 -2 27 -51 30 l-53 3
3 61 c4 58 1 66 -46 148 l-49 86 -23 -25 c-32 -34 -50 -32 -50 4 0 16 -8 43
-17 59 -17 29 -17 31 2 52 10 11 19 33 20 48 0 26 3 27 63 34 38 4 74 15 92
28 l29 21 -15 47 c-8 26 -22 74 -30 107 -9 33 -25 69 -35 81 -25 27 -24 53 4
64 12 5 15 9 7 9 -8 0 -23 -6 -32 -13z"/>
<path d="M3971 2401 c-8 -5 -12 -18 -8 -31 3 -12 3 -28 0 -36 -6 -16 -65 -19
-92 -4 -13 6 -24 5 -37 -5 -26 -20 -47 -18 -78 6 -15 12 -29 20 -31 18 -2 -2
12 -15 31 -29 43 -32 46 -62 5 -54 -40 8 -55 -21 -46 -86 6 -45 4 -52 -25 -89
-23 -29 -41 -41 -64 -43 -18 -2 -31 -9 -31 -16 0 -8 -8 -19 -18 -27 -16 -11
-16 -13 -1 -19 28 -11 34 -7 34 24 0 28 3 30 36 30 21 0 33 4 29 10 -3 6 -1
10 4 10 6 0 23 18 37 40 23 35 26 46 20 89 l-7 50 41 11 c29 8 44 18 51 37 9
24 12 25 52 18 23 -4 50 -7 61 -7 10 1 34 -15 54 -34 19 -19 37 -32 39 -30 3
2 -5 14 -16 25 -20 20 -24 44 -25 129 0 12 0 22 -1 22 0 0 -6 -4 -14 -9z"/>
<path d="M4976 1613 c4 -15 10 -35 15 -44 4 -9 6 -25 3 -36 -14 -51 61 -152
126 -172 31 -9 40 -16 36 -27 -3 -9 -6 -17 -6 -19 0 -2 -16 -9 -36 -15 -34
-12 -35 -14 -29 -46 8 -43 -12 -46 -42 -6 -43 58 -127 18 -104 -50 6 -17 11
-34 11 -38 0 -3 -35 -34 -79 -68 -59 -47 -86 -76 -110 -121 -21 -40 -40 -62
-60 -71 -16 -6 -36 -19 -44 -28 -21 -23 -68 -142 -57 -142 13 0 34 36 56 93 9
27 25 51 33 54 56 17 80 34 86 62 9 42 54 95 130 152 36 27 65 54 65 59 0 5
-5 21 -12 35 -16 35 4 72 40 73 20 0 34 -9 55 -39 30 -41 34 -44 54 -31 10 6
10 17 3 42 -14 47 -15 45 30 65 58 26 52 53 -19 82 -65 25 -97 70 -105 148 -6
57 -20 100 -36 110 -7 5 -9 -2 -4 -22z"/>
<path d="M3053 1561 c-19 -5 -20 -8 -9 -23 7 -10 16 -15 19 -11 4 3 7 -1 7
-10 0 -9 7 -17 15 -17 8 0 15 -4 15 -9 0 -5 15 -14 33 -21 17 -7 42 -22 54
-33 16 -14 29 -18 48 -13 20 5 26 3 23 -6 -5 -13 68 -78 87 -78 6 0 16 -9 23
-20 10 -16 23 -20 63 -20 50 0 51 -1 46 -26 -4 -20 -1 -24 12 -18 9 3 22 7 29
7 6 0 12 4 12 9 0 5 5 6 10 3 6 -3 10 1 10 10 0 10 7 15 17 13 22 -4 29 -28 9
-28 -9 0 -16 -4 -16 -10 0 -5 5 -10 10 -10 6 0 10 -6 10 -14 0 -16 21 -26 54
-26 12 0 32 -7 44 -16 18 -12 22 -12 22 -2 0 9 13 14 35 15 38 1 45 -12 18
-33 -16 -11 -16 -13 10 -19 15 -4 27 -11 27 -16 0 -5 6 -9 14 -9 7 0 19 -6 26
-14 6 -8 18 -12 25 -10 7 3 29 -1 47 -9 33 -15 77 -31 90 -32 3 0 9 -3 13 -7
4 -4 13 -4 21 -1 13 5 13 8 1 22 -8 9 -20 33 -27 54 -6 20 -15 37 -18 37 -4 0
-46 7 -94 15 -69 12 -114 29 -220 82 -73 36 -141 74 -150 84 -21 21 -79 39
-125 39 -40 0 -149 72 -181 121 -23 33 -30 36 -117 53 -11 2 -30 1 -42 -3z"/>
</g>
</svg>
